# xmcd
#
# Track frame offsets:
#	150
#	6960
#	23278
#	33340
#	36656
#	39202
#	48629
#	67535
#	81515
#	98164
#	140206
#	152948
#	189038
#	191473
#	207301
#	244611
#
# Disc length: 3566 seconds
#
# Revision: 0
# Processed by: cddbd v1.5.2PL0 Copyright (c) Steve Scherf et al.
# Submitted via: EasyCDDAExtractor 12.0.1.1
#
DISCID=cc0dec10
DTITLE=Tina Turner - Live At Carnegie Hall
DYEAR=1986
DGENRE=Blues
TTITLE0=Intro by DJ Frankie Crocker and MC Eddie Burkes
TTITLE1=Piece of My Heart (The Ikettes)
TTITLE2=Everyday People (The Ikettes)
TTITLE3=Intro to Tina by MC Eddie Burkes
TTITLE4=Doin' The Tina Turner
TTITLE5=Sweet Soul Music
TTITLE6=Ooh Poo Pah Doo
TTITLE7=Honky Tonk Women
TTITLE8=A Love Like Yours (Don't Come Knockin' Everyday)
TTITLE9=Proud Mary
TTITLE10=Proud Mary (encore)
TTITLE11=I Smell Trouble
TTITLE12=Ike's Tune
TTITLE13=I Want To Take You Higher
TTITLE14=I've Been Loving You Too Long
TTITLE15=Respect
EXTD=What You Hear Is What You Get: Ike and Tina Turner Live at Carnegie Hall\nR
EXTD=ecorded April 1, 1971 at Carnegie Hall, NYC.\nThe Ike and Tina Turner Revie
EXTD=w featuring:\n    The Ikettes and the Kings of Rhythm\n
EXTT0=
EXTT1=
EXTT2=
EXTT3=
EXTT4=
EXTT5=
EXTT6=
EXTT7=
EXTT8=
EXTT9=
EXTT10=
EXTT11=
EXTT12=
EXTT13=
EXTT14=
EXTT15=
PLAYORDER=
